/vscmnt/brussel_pixiu_data/_data_brussel/112/vsc11236/PredSimResults/SUBJ10mtu3D/worker9.mot
version=1
nRows=11
nColumns=50
inDegrees=yes
endheader
                time	         pelvis_tilt	         pelvis_list	     pelvis_rotation	           pelvis_tx	           pelvis_ty	           pelvis_tz	       hip_flexion_r	     hip_adduction_r	      hip_rotation_r	        knee_angle_r	       ankle_angle_r	         mtp_angle_r	       hip_flexion_l	     hip_adduction_l	      hip_rotation_l	        knee_angle_l	       ankle_angle_l	         mtp_angle_l	    lumbar_extension	      lumbar_bending	     lumbar_rotation	 ercspn_r/activation	 intobl_r/activation	 extobl_r/activation	    abd_r/activation	    add_r/activation	hamstrings_r/activation	bifemsh_r/activation	glut_max_r/activation	iliopsoas_r/activation	rect_fem_r/activation	  vasti_r/activation	gastroc_r/activation	 soleus_r/activation	tib_ant_r/activation	 ercspn_l/activation	 intobl_l/activation	 extobl_l/activation	    abd_l/activation	    add_l/activation	hamstrings_l/activation	bifemsh_l/activation	glut_max_l/activation	iliopsoas_l/activation	rect_fem_l/activation	  vasti_l/activation	gastroc_l/activation	 soleus_l/activation	tib_ant_l/activation	
          0.55111901	         -7.16423053	          1.77050136	         -7.76279087	          0.66685400	          0.81766850	          0.01193870	        -13.08705787	         -1.70718926	          3.20341933	         -8.60061299	          5.72705632	         32.11861837	         33.36994313	         -1.86710668	         -7.06827422	         -7.88445134	         -3.88639271	          0.27124686	         -5.85925396	          0.34334047	          3.37932324	          0.05863670	          0.01000043	          0.01000051	          0.05570211	          0.04706863	          0.04030750	          0.21416520	          0.03256135	          0.42697227	          0.01000668	          0.01000135	          0.06205635	          0.07197974	          0.03469854	          0.10002414	          0.17660384	          0.03407750	          0.01000011	          0.24158358	          0.02354959	          0.26769430	          0.05915977	          0.04896502	          0.01801543	          0.01000018	          0.02324129	          0.01380009	          0.46024078	
          0.56214139	         -7.29000890	          1.75507852	         -7.93386871	          0.68222514	          0.81688484	          0.01195505	        -13.02915840	         -1.77283647	          2.88407935	        -10.19220762	          4.40625983	         33.99381555	         33.11657971	         -1.68238849	         -6.20082065	         -9.26280979	         -3.98779726	          0.26016945	         -5.68337689	         -0.11909426	          3.51941443	          0.07425824	          0.01000021	          0.01000058	          0.04705739	          0.06456705	          0.04170383	          0.18092781	          0.02750804	          0.41365406	          0.01000297	          0.01068658	          0.05242554	          0.06080893	          0.02931348	          0.08450237	          0.16359393	          0.02878885	          0.01000023	          0.20409319	          0.04635409	          0.22967511	          0.08334775	          0.04136595	          0.01521955	          0.01000008	          0.01963448	          0.01165852	          0.48736435	
          0.57316377	         -7.39808835	          1.73369063	         -8.05155848	          0.69779316	          0.81640297	          0.01186681	        -12.80701030	         -1.83108550	          2.53113593	        -12.09776017	          2.92212633	         35.79042590	         32.84951710	         -1.51887707	         -5.42418907	        -10.58653846	         -4.18753862	          0.24529734	         -5.51840391	         -0.58723639	          3.64131162	          0.10311525	          0.01000019	          0.01000048	          0.03975429	          0.05609904	          0.04445737	          0.15284874	          0.02323896	          0.39499933	          0.01000302	          0.01345540	          0.04428937	          0.05137172	          0.02476416	          0.09693239	          0.13820514	          0.02432098	          0.04164428	          0.21926188	          0.05463983	          0.19403105	          0.10496115	          0.03494621	          0.01285760	          0.01000016	          0.01658741	          0.01000069	          0.50261845	
          0.58418615	         -7.48608443	          1.70099105	         -8.11659716	          0.71344692	          0.81630659	          0.01166063	        -12.37019427	         -1.87831116	          2.14275837	        -14.38618675	          1.26862344	         37.39878396	         32.63864045	         -1.37264694	         -4.81535296	        -12.05943639	         -4.24524097	          0.22969297	         -5.37497129	         -1.04883465	          3.74118818	          0.14211708	          0.01000020	          0.01000040	          0.03358460	          0.05925896	          0.04115489	          0.12912744	          0.01963240	          0.37188818	          0.01000289	          0.01136870	          0.03741590	          0.04339910	          0.02092088	          0.11289699	          0.11675639	          0.02054650	          0.09229930	          0.27147551	          0.05646466	          0.16391855	          0.12471128	          0.02952278	          0.01086228	          0.01000026	          0.01401323	          0.01000159	          0.50769918	
          0.59520853	         -7.55187690	          1.65975412	         -8.13202087	          0.72910014	          0.81670557	          0.01134877	        -11.66382698	         -1.92075590	          1.71895911	        -17.13110125	         -0.55433277	         38.64061144	         32.49842481	         -1.24551974	         -4.37542153	        -13.72910698	         -4.04015394	          0.22398933	         -5.25535708	         -1.50268960	          3.81536408	          0.18012875	          0.01000020	          0.01000036	          0.02837242	          0.05908366	          0.03697644	          0.10908766	          0.01658557	          0.33924718	          0.01000158	          0.01000037	          0.03160916	          0.03666379	          0.01767407	          0.12449831	          0.09863635	          0.01735780	          0.13346675	          0.31895540	          0.05441630	          0.13847933	          0.14016574	          0.02494103	          0.01000032	          0.01000028	          0.01183855	          0.01000026	          0.48713064	
          0.60623091	         -7.59437918	          1.61040932	         -8.10057811	          0.74469004	          0.81769444	          0.01094540	        -10.65164391	         -1.96559281	          1.25435604	        -20.36785057	         -2.54995685	         39.28410425	         32.41358797	         -1.13565336	         -4.09515674	        -15.58210156	         -3.43829847	          0.33921464	         -5.15817190	         -1.94477240	          3.86203481	          0.21455129	          0.01000021	          0.01000033	          0.02396914	          0.06442146	          0.03165181	          0.09215811	          0.01401159	          0.29015088	          0.01000102	          0.01000014	          0.02670360	          0.03097376	          0.01493122	          0.13470810	          0.08332845	          0.01466399	          0.16187838	          0.33896944	          0.04778656	          0.11698816	          0.15857534	          0.02107036	          0.01000055	          0.01288357	          0.01000168	          0.01000075	          0.41363796	
          0.61725329	         -7.61431930	          1.55360092	         -8.02679965	          0.76018853	          0.81932544	          0.01047410	         -9.33094781	         -2.02213392	          0.74140725	        -24.06367882	         -4.71549046	         39.06492916	         32.30369697	         -1.02974331	         -3.91323989	        -17.44464498	         -2.56697791	          0.69349732	         -5.07627348	         -2.37235368	          3.88202861	          0.23521412	          0.01000025	          0.01000033	          0.02024924	          0.15849305	          0.02949339	          0.07785629	          0.01183708	          0.24512083	          0.01000075	          0.01000008	          0.02255939	          0.02616682	          0.05162818	          0.13826790	          0.07039626	          0.01238826	          0.17296818	          0.35045633	          0.04592532	          0.09883238	          0.16897449	          0.01780041	          0.01000052	          0.02490136	          0.01000086	          0.01000069	          0.34944321	
          0.62827567	         -7.61425000	          1.48567045	         -7.91568905	          0.77557089	          0.82151823	          0.00996541	         -7.72777891	         -2.09528764	          0.15891000	        -28.17327060	         -6.82357553	         37.48405362	         32.05518572	         -0.91356029	         -3.74663659	        -19.07726629	         -1.64340401	          1.34482405	         -5.00276734	         -2.77934773	          3.87763364	          0.24301285	          0.01000026	          0.01000027	          0.01710665	          0.24953068	          0.03206739	          0.06577460	          0.01000015	          0.20707918	          0.01000101	          0.01000007	          0.01905846	          0.02210595	          0.16235202	          0.12215371	          0.05947109	          0.01046577	          0.18072516	          0.33201451	          0.04998763	          0.08349438	          0.15782871	          0.01503794	          0.01000055	          0.03669920	          0.01000079	          0.01000066	          0.29521126	
          0.63929805	         -7.59752392	          1.39978300	         -7.77098464	          0.79076522	          0.82406115	          0.00944444	         -5.91572103	         -2.18521870	         -0.50285478	        -32.59613522	         -8.47549517	         34.19146323	         31.62481764	         -0.78858674	         -3.54241192	        -20.36836856	         -0.84031533	          2.20307085	         -4.94023688	         -3.15579248	          3.85255120	          0.24658014	          0.01000468	          0.01000053	          0.01445178	          0.24291894	          0.04068158	          0.05557118	          0.01000031	          0.17494147	          0.01000082	          0.01000006	          0.01610117	          0.01867536	          0.30742228	          0.10319618	          0.05024146	          0.01000041	          0.19106072	          0.28048825	          0.04938564	          0.07053684	          0.14063421	          0.01270422	          0.01000039	          0.04642750	          0.01000065	          0.01000056	          0.25286112	
          0.65032043	         -7.56727262	          1.30120020	         -7.59365738	          0.80570677	          0.82674025	          0.00893637	         -4.03078466	         -2.27763041	         -1.20477430	        -37.04486231	         -9.14237502	         29.87031056	         31.03072676	         -0.65462547	         -3.29280809	        -21.33677270	         -0.16156071	          3.17339381	         -4.89137610	         -3.50588305	          3.80694007	          0.24455202	          0.01000201	          0.01000068	          0.01220894	          0.20521976	          0.03733526	          0.09848325	          0.01000022	          0.14779157	          0.01000078	          0.01000003	          0.05496831	          0.01963777	          0.34593442	          0.08718099	          0.04244425	          0.01000049	          0.18126555	          0.23695828	          0.05412264	          0.05959028	          0.12884075	          0.01073274	          0.01000040	          0.06067496	          0.01000080	          0.01000071	          0.22999853	
          0.66134281	         -7.52701931	          1.18408436	         -7.38109021	          0.82038400	          0.82950670	          0.00845883	         -2.16569081	         -2.32742342	         -1.92181382	        -41.14456322	         -8.97046987	         25.99753143	         30.28394737	         -0.52321244	         -3.01817972	        -22.00062697	          0.42876302	          4.18173420	         -4.85693171	         -3.82203043	          3.73747402	          0.23302531	          0.01000052	          0.01000068	          0.01031419	          0.17337174	          0.03156365	          0.13650138	          0.01000013	          0.13005572	          0.01000077	          0.01000003	          0.04644685	          0.01659012	          0.35698171	          0.07632956	          0.03585714	          0.01000045	          0.16961254	          0.20018366	          0.05631620	          0.05034256	          0.12151706	          0.01000044	          0.01000042	          0.06870295	          0.01000081	          0.01000076	          0.21761268	
